<svg width="133" height="43" viewBox="0 0 133 43" fill="none" xmlns="http://www.w3.org/2000/svg">
<path d="M9.27674 16.8498C9.27674 15.7304 10.4501 15.2997 12.3937 15.2997C15.1802 15.2997 18.7002 15.9601 21.4869 17.137V10.3911C18.4436 9.44394 15.437 9.07075 12.3937 9.07075C4.95007 9.07075 0 12.1136 0 17.1945C0 25.1168 13.9334 23.854 13.9334 27.27C13.9334 28.5902 12.467 29.0209 10.4134 29.0209C7.37019 29.0209 3.48335 28.0448 0.403224 26.7244V33.5563C3.81336 34.7045 7.2601 35.1923 10.4134 35.1923C18.0402 35.1923 23.2836 32.2359 23.2836 27.0976C23.247 18.5436 9.27674 20.0648 9.27674 16.8498ZM34.0637 3.32983L25.117 4.82238L25.0803 27.8151C25.0803 32.0637 29.1505 35.1923 34.5773 35.1923C37.5839 35.1923 39.7838 34.7618 40.9938 34.2451V28.418C39.8207 28.7912 34.0271 30.1116 34.0271 25.8632V15.6729H40.9938V9.55878H34.0271L34.0637 3.32983ZM52.3975 11.6829L51.8107 9.55878H43.8906V34.6756H53.0575V17.6537C55.2206 15.4434 58.8875 15.8453 60.0242 16.1609V9.55878C58.8509 9.21426 54.5608 8.58272 52.3975 11.6829ZM62.2608 9.55878H71.4643V34.6756H62.2608V9.55878ZM62.2608 7.37718L71.4643 5.8271V0L62.2608 1.52141V7.37718ZM90.6045 9.07075C87.0111 9.07075 84.7011 10.3911 83.4179 11.3099L82.941 9.53012H74.8744V43L84.0411 41.4788L84.0779 33.3552C85.3979 34.1016 87.3411 35.1637 90.5679 35.1637C97.1314 35.1637 103.108 31.0301 103.108 21.9307C103.071 13.6061 97.0213 9.07075 90.6045 9.07075ZM88.4046 28.8485C86.2413 28.8485 84.9576 28.2458 84.0779 27.4995L84.0411 16.8498C84.9945 16.0174 86.3145 15.4434 88.4046 15.4434C91.7413 15.4434 94.0513 18.3712 94.0513 22.1315C94.0513 25.9781 91.7779 28.8485 88.4046 28.8485ZM132.002 22.2177C132.002 14.8692 127.455 9.07075 118.765 9.07075C110.038 9.07075 104.758 14.8694 104.758 22.1604C104.758 30.8004 110.992 35.1637 119.938 35.1637C124.302 35.1637 127.602 34.3886 130.095 33.2979V27.5568C127.602 28.5329 124.742 29.1357 121.112 29.1357C117.555 29.1357 114.401 28.1597 113.998 24.7725H131.929C131.929 24.3991 132.002 22.9066 132.002 22.2177ZM113.888 19.4908C113.888 16.2471 116.418 14.8979 118.728 14.8979C120.965 14.8979 123.348 16.2471 123.348 19.4908H113.888Z" fill="#6772E5"/>
</svg>
