<svg width="133" height="43" viewBox="0 0 133 43" fill="none" xmlns="http://www.w3.org/2000/svg">
<path d="M33.8845 3.48959C34.0485 6.92674 37.2578 20.0435 37.2578 20.0435C38.437 22.7001 39.4522 20.0435 39.4522 20.0435C43.3348 9.26765 35.4006 3.0231 35.4006 3.0231C33.3751 1.92757 33.8845 3.48959 33.8845 3.48959M79.9522 1.61681C79.9522 1.61681 83.8366 4.11534 79.9522 4.58347C79.9522 4.58347 65.4386 6.14456 54.6393 15.5174C54.6393 15.5174 38.437 28.6313 32.3634 43C32.3634 43 30.338 43 31.0157 40.19C31.6901 37.3793 35.7382 25.041 53.793 9.89505C53.793 9.89505 71.1799 -4.78606 79.9522 1.61681" fill="#FF4600"/>
<path d="M6.11643 22.087C6.75757 22.208 7.33322 22.2674 8.17868 22.2674C11.4889 22.2674 13.7195 20.3585 13.7195 17.9343C13.7195 15.7532 11.9966 14.9666 9.76807 14.9666C8.78581 14.9666 8.04238 15.0276 7.56978 15.1473L6.11643 22.087ZM4.25775 12.6331C5.64358 12.3289 7.70582 12.1484 9.73304 12.1484C11.8633 12.1484 14.0936 12.5407 15.5799 13.6027C16.898 14.5115 17.6752 15.8424 17.6752 17.663C17.6752 20.0857 16.3904 22.0572 14.768 23.2074C12.9441 24.5104 10.3392 25.1468 7.63577 25.1468C6.82382 25.1468 6.11643 25.0546 5.50753 24.9953L3.85113 32.7223H0L4.25775 12.6331ZM28.1161 20.5094C27.7113 20.417 27.2054 20.3585 26.4952 20.3585C22.8789 20.3585 20.0395 24.0261 20.0395 27.3897C20.0395 28.9325 20.6816 30.2065 22.406 30.2065C24.2632 30.2065 26.4952 28.1475 27.2727 24.3891L28.1161 20.5094ZM26.5285 32.7223C26.5285 31.8417 26.663 30.6616 26.7998 29.4174H26.7318C25.1099 32.1161 22.9119 33.0545 20.8166 33.0545C17.8772 33.0545 15.9485 30.9938 15.9485 28.0255C15.9485 22.9956 19.8694 17.6316 27.542 17.6316C29.3329 17.6316 31.2599 17.9343 32.5447 18.2979L30.8213 25.9944C30.3466 28.1754 30.0771 30.964 30.1451 32.7223H26.5285ZM54.9129 26.8737C54.9129 28.9015 56.0956 30.3296 58.1236 30.3296C61.0641 30.3296 63.0251 26.6916 63.0251 23.7526C63.0251 22.2363 62.2461 20.3579 59.8823 20.3579C56.7386 20.3579 54.9126 24.1165 54.9126 26.8737M67.0805 23.7237C67.0805 28.752 63.1926 33.054 57.5838 33.054C53.4245 33.054 50.8584 30.4789 50.8584 26.9628C50.8584 21.965 54.7443 17.6319 60.3549 17.6319C64.782 17.6319 67.0803 20.4801 67.0803 23.7237M67.8206 32.7223L69.9509 22.5403C70.3555 20.7825 70.592 19.2372 70.7951 17.9657H74.3125L73.9399 20.6018H74.0061C75.5257 18.6312 77.6227 17.6316 79.9213 17.6316C82.2858 17.6316 84.1117 18.9057 84.1117 21.6926C84.1117 22.3582 83.979 23.3879 83.8089 24.116L82.0145 32.7223H78.0608L79.8167 24.3891C79.9215 23.8441 80.0218 23.2074 80.0218 22.631C80.0218 21.3886 79.5149 20.5094 77.9605 20.5094C76.1696 20.5094 73.8703 22.4481 73.1609 25.9045L71.7421 32.7223H67.8206ZM94.5852 20.2678C92.1166 20.2678 90.496 22.2369 90.0231 24.0261C94.0775 24.0557 96.6822 23.571 96.6822 21.7841C96.6822 20.8448 95.837 20.2678 94.5852 20.2678ZM98.3368 31.8729C96.7137 32.6299 94.5189 33.0545 92.5232 33.0545C87.9647 33.0545 85.7664 30.541 85.7664 26.9344C85.7664 22.48 89.4142 17.6323 95.0928 17.6323C98.3368 17.6323 100.399 19.2979 100.399 21.7841C100.399 25.5705 95.973 26.782 89.6193 26.6616C89.5502 27.1758 89.6855 28.1754 90.0581 28.7518C90.7008 29.753 91.8803 30.2673 93.4372 30.2673C95.2979 30.2673 96.7824 29.8427 97.9688 29.2977L98.3368 31.8729ZM109.892 20.2678C107.427 20.2678 105.804 22.2369 105.33 24.0261C109.385 24.0557 111.99 23.571 111.99 21.7841C111.99 20.8448 111.145 20.2678 109.892 20.2678M113.644 31.8729C112.024 32.6299 109.826 33.0545 107.834 33.0545C103.272 33.0545 101.074 30.541 101.074 26.9344C101.074 22.48 104.722 17.6323 110.4 17.6323C113.644 17.6323 115.71 19.2979 115.71 21.7841C115.71 25.5705 111.281 26.782 104.927 26.6616C104.857 27.1758 104.993 28.1754 105.365 28.7518C106.008 29.753 107.19 30.2673 108.745 30.2673C110.605 30.2673 112.09 29.8427 113.276 29.2977L113.644 31.8729ZM115.943 32.7223L117.869 23.6313C118.308 21.5409 118.544 19.2684 118.711 17.9654H122.126C122.025 18.965 121.925 19.9949 121.754 21.0569H121.855C122.975 19.0863 124.762 17.6316 126.994 17.6316C127.3 17.6316 127.603 17.663 127.875 17.663L127.095 21.1172C126.893 21.0858 126.623 21.0858 126.351 21.0858C123.544 21.0858 121.754 23.6313 121.114 26.782L119.862 32.7223H115.943ZM130.864 19.3155H131.153C131.448 19.3155 131.644 19.1676 131.644 18.9446C131.644 18.6934 131.439 18.5832 131.143 18.5832C131.007 18.5832 130.91 18.5921 130.865 18.6017L130.864 19.3155ZM130.583 18.4251C130.761 18.3984 130.941 18.385 131.122 18.385C131.421 18.385 131.62 18.4396 131.751 18.5455C131.859 18.6315 131.922 18.7655 131.922 18.9195C131.922 19.1733 131.744 19.345 131.515 19.4133V19.4229C131.681 19.4743 131.779 19.6147 131.835 19.817C131.904 20.0869 131.956 20.2771 132.002 20.3533H131.71C131.675 20.2939 131.626 20.1294 131.57 19.8862C131.504 19.6163 131.383 19.5168 131.129 19.5073H130.865V20.3533H130.583V18.4251Z" fill="black"/>
</svg>
