<svg width="133" height="43" viewBox="0 0 133 43" fill="none" xmlns="http://www.w3.org/2000/svg">
<path fill-rule="evenodd" clip-rule="evenodd" d="M81.8929 33.6273C74.2222 39.739 63.104 42.9999 53.5314 42.9999C40.109 42.9999 28.0255 37.6335 18.8838 28.7082C18.1656 28.0063 18.8091 27.0498 19.671 27.5964C29.5367 33.8012 41.7351 37.5341 54.3358 37.5341C62.8339 37.5341 72.1824 35.6335 80.7782 31.6895C82.0768 31.0932 83.1628 32.6087 81.8929 33.6273" fill="#FF9900"/>
<path fill-rule="evenodd" clip-rule="evenodd" d="M85.0758 29.6835C84.099 28.3295 78.5944 29.0437 76.1237 29.3605C75.371 29.4599 75.2561 28.7518 75.9341 28.2425C80.3182 24.9071 87.512 25.8699 88.3509 26.9879C89.1898 28.1121 88.1326 35.907 84.0128 39.6274C83.3807 40.1988 82.7774 39.8945 83.059 39.1367C83.984 36.6399 86.0583 31.0437 85.0758 29.6835" fill="#FF9900"/>
<path fill-rule="evenodd" clip-rule="evenodd" d="M76.2994 4.69486V1.45267C76.2994 0.961999 76.6441 0.632812 77.0578 0.632812H90.4859C90.9168 0.632812 91.2616 0.968211 91.2616 1.45267V4.22903C91.2558 4.69486 90.8938 5.30354 90.2503 6.26626L83.2921 17.0052C85.8777 16.9369 88.607 17.353 90.9513 18.7816C91.4799 19.1046 91.6236 19.5766 91.6638 20.0424V23.502C91.6638 23.9741 91.1811 24.5268 90.6755 24.2411C86.5442 21.8996 81.0569 21.6449 76.489 24.266C76.0235 24.5393 75.5352 23.9927 75.5352 23.5206V20.235C75.5352 19.707 75.5409 18.8064 76.0293 18.0052L84.0907 5.50851H77.075C76.6441 5.50851 76.2994 5.17933 76.2994 4.69486" fill="black"/>
<path fill-rule="evenodd" clip-rule="evenodd" d="M27.317 24.9245H23.2317C22.841 24.8934 22.5307 24.5767 22.502 24.1729V1.50871C22.502 1.0553 22.8525 0.695051 23.2891 0.695051H27.0986C27.4951 0.713672 27.8111 1.04287 27.8399 1.4528V4.41549H27.9146C28.9086 1.55218 30.776 0.216797 33.2927 0.216797C35.8496 0.216797 37.4469 1.55218 38.5961 4.41549C39.5844 1.55218 41.831 0.216797 44.2385 0.216797C45.9508 0.216797 47.824 0.98076 48.9674 2.69502C50.2602 4.60182 49.9959 7.37196 49.9959 9.8005L49.9902 24.1046C49.9902 24.558 49.6397 24.9245 49.203 24.9245H45.1234C44.7155 24.8934 44.3879 24.5394 44.3879 24.1046V12.0924C44.3879 11.1359 44.4684 8.75082 44.273 7.844C43.9685 6.32229 43.0549 5.89372 41.8713 5.89372C40.883 5.89372 39.8487 6.608 39.4293 7.75084C39.0098 8.89368 39.05 10.8067 39.05 12.0924V24.1046C39.05 24.558 38.6995 24.9245 38.2629 24.9245H34.1833C33.7696 24.8934 33.4478 24.5394 33.4478 24.1046L33.4421 12.0924C33.4421 9.56448 33.827 5.84404 30.9254 5.84404C27.9893 5.84404 28.1042 9.4713 28.1042 12.0924V24.1046C28.1042 24.558 27.7537 24.9245 27.317 24.9245" fill="black"/>
<path fill-rule="evenodd" clip-rule="evenodd" d="M102.822 0.216797C108.884 0.216797 112.165 5.84404 112.165 12.9992C112.165 19.9121 108.539 25.3965 102.822 25.3965C96.8696 25.3965 93.6289 19.7693 93.6289 12.757C93.6289 5.70118 96.9098 0.216797 102.822 0.216797M102.857 4.84406C99.8459 4.84406 99.6563 9.27876 99.6563 12.0427C99.6563 14.8128 99.6161 20.7258 102.822 20.7258C105.988 20.7258 106.138 15.9557 106.138 13.0489C106.138 11.1359 106.063 8.8502 105.529 7.03656C105.069 5.45895 104.155 4.84406 102.857 4.84406" fill="black"/>
<path fill-rule="evenodd" clip-rule="evenodd" d="M120.028 24.9245H115.96C115.552 24.8934 115.224 24.5394 115.224 24.1046L115.219 1.43417C115.253 1.01803 115.592 0.695051 116.006 0.695051H119.792C120.149 0.713672 120.442 0.97455 120.522 1.32858V4.79436H120.597C121.74 1.69503 123.343 0.216797 126.165 0.216797C127.998 0.216797 129.785 0.931072 130.934 2.88756C132.002 4.7012 132.002 7.75084 132.002 9.94335V24.2102C131.956 24.6077 131.617 24.9245 131.215 24.9245H127.118C126.745 24.8934 126.435 24.5953 126.394 24.2102V11.8998C126.394 9.42162 126.659 5.79435 123.838 5.79435C122.844 5.79435 121.93 6.51484 121.476 7.60798C120.901 8.99306 120.827 10.3719 120.827 11.8998V24.1046C120.821 24.558 120.465 24.9245 120.028 24.9245" fill="black"/>
<path fill-rule="evenodd" clip-rule="evenodd" d="M65.5962 14.0992C65.5962 15.8196 65.6364 17.2544 64.832 18.7823C64.1827 20.0245 63.1484 20.7885 62.005 20.7885C60.4364 20.7885 59.5171 19.4966 59.5171 17.5898C59.5171 13.8259 62.6371 13.1427 65.5962 13.1427V14.0992ZM69.716 24.863C69.4459 25.1238 69.0552 25.1425 68.7507 24.9686C67.3946 23.7512 67.1476 23.186 66.4063 22.0245C64.1655 24.4965 62.5738 25.2356 59.6722 25.2356C56.2304 25.2356 53.5586 22.9437 53.5586 18.3538C53.5586 14.77 55.3513 12.329 57.914 11.1365C60.1319 10.0806 63.2289 9.89426 65.5962 9.60234V9.03092C65.5962 7.98124 65.6709 6.73902 65.0963 5.83221C64.6021 5.01856 63.6483 4.68316 62.8037 4.68316C61.2466 4.68316 59.8618 5.5465 59.5228 7.33529C59.4538 7.7328 59.1838 8.1241 58.8103 8.14273L54.8514 7.68311C54.5181 7.60237 54.1447 7.31044 54.2424 6.75766C55.1502 1.5652 59.4941 0 63.3783 0C65.3663 0 67.9635 0.571421 69.5321 2.19872C71.5202 4.2049 71.3305 6.88188 71.3305 9.79488V16.6768C71.3305 18.7451 72.1235 19.6519 72.8704 20.7699C73.129 21.1674 73.1865 21.6456 72.8532 21.9438C72.02 22.6953 70.5376 24.0928 69.7217 24.8754L69.716 24.863Z" fill="black"/>
<path fill-rule="evenodd" clip-rule="evenodd" d="M12.0376 14.0992C12.0376 15.8196 12.0778 17.2544 11.2734 18.7823C10.6241 20.0245 9.59559 20.7885 8.44641 20.7885C6.87779 20.7885 5.9642 19.4966 5.9642 17.5898C5.9642 13.8259 9.0842 13.1427 12.0376 13.1427V14.0992M16.1574 24.863C15.8873 25.1238 15.4966 25.1425 15.1921 24.9686C13.836 23.7512 13.5947 23.186 12.8477 22.0245C10.6069 24.4965 9.021 25.2356 6.11359 25.2356C2.67757 25.2356 0 22.9437 0 18.3538C0 14.77 1.79845 12.329 4.35536 11.1365C6.57326 10.0806 9.67028 9.89426 12.0376 9.60234V9.03092C12.0376 7.98124 12.1123 6.73902 11.5434 5.83221C11.0435 5.01856 10.0897 4.68316 9.25083 4.68316C7.69371 4.68316 6.30321 5.5465 5.9642 7.33529C5.89525 7.7328 5.6252 8.1241 5.25746 8.14273L1.29282 7.68311C0.959558 7.60237 0.591823 7.31044 0.683757 6.75766C1.59735 1.5652 5.93547 0 9.81968 0C11.8077 0 14.4049 0.571421 15.9735 2.19872C17.9616 4.2049 17.7719 6.88188 17.7719 9.79488V16.6768C17.7719 18.7451 18.5649 19.6519 19.3118 20.7699C19.5761 21.1674 19.6336 21.6456 19.3003 21.9438C18.4672 22.6953 16.9848 24.0928 16.1688 24.8754L16.1574 24.8629" fill="black"/>
</svg>
