<svg width="88" height="88" viewBox="0 0 88 88" fill="none" xmlns="http://www.w3.org/2000/svg">
<rect width="88" height="88" rx="44" fill="black"/>
<path d="M55.5666 33.9493L55.5688 33.9515C55.7063 34.0873 55.8155 34.2491 55.89 34.4274C55.9645 34.6058 56.0029 34.7972 56.0029 34.9905C56.0029 35.1837 55.9645 35.3751 55.89 35.5535C55.8155 35.7318 55.7063 35.8936 55.5688 36.0294L55.5666 36.0316L48.7555 42.8427H45.1602V39.2487L51.9713 32.4362L51.9713 32.4362L51.9734 32.4341C52.1093 32.2966 52.2711 32.1874 52.4494 32.1129C52.6278 32.0384 52.8191 32 53.0124 32C53.2057 32 53.3971 32.0384 53.5754 32.1129C53.7538 32.1874 53.9155 32.2966 54.0514 32.4341L54.0514 32.4341L54.0535 32.4362L55.5666 33.9493L55.5666 33.9493ZM48.0534 41.8033H48.2604L48.4068 41.6571L52.9474 37.1218L53.3013 36.7682L52.9476 36.4144L51.5924 35.0592L51.239 34.7059L50.8855 35.059L46.3449 39.5944L46.1982 39.7408V39.9481V41.3033V41.8033H46.6982H48.0534Z" fill="white" stroke="white"/>
<path d="M52.5517 54.3687H53.0517V53.8687V46.4743H54.6831L54.6831 53.8672C54.6831 53.8674 54.6831 53.8676 54.6831 53.8678C54.6813 54.4328 54.456 54.9741 54.0565 55.3736C53.657 55.7731 53.1158 55.9983 52.5508 56.0002C52.5506 56.0002 52.5504 56.0002 52.5502 56.0002H34.133C34.1328 56.0002 34.1325 56.0002 34.1323 56.0002C33.5674 55.9983 33.0261 55.7731 32.6266 55.3736C32.2271 54.9741 32.0019 54.4328 32 53.8679V35.4493C32.0019 34.8843 32.2271 34.3431 32.6266 33.9436C33.0261 33.5441 33.5673 33.3189 34.1322 33.317H41.5258V34.9485H34.1315H33.6315V35.4485V53.8687V54.3687H34.1315H52.5517Z" fill="black" stroke="white"/>
</svg>
