<svg width="88" height="88" viewBox="0 0 88 88" fill="none" xmlns="http://www.w3.org/2000/svg">
<rect width="88" height="88" rx="44" fill="black"/>
<path d="M31.5 32.3333C31.5 32.1123 31.5878 31.9004 31.7441 31.7441C31.9004 31.5878 32.1123 31.5 32.3334 31.5H34.8334C35.0193 31.5001 35.1999 31.5623 35.3463 31.6767C35.4928 31.7912 35.5968 31.9513 35.6418 32.1317L36.3168 34.8333H55.6674C55.7898 34.8334 55.9106 34.8605 56.0213 34.9126C56.1321 34.9647 56.23 35.0405 56.3081 35.1347C56.3862 35.2289 56.4426 35.3391 56.4733 35.4575C56.504 35.576 56.5083 35.6997 56.4858 35.82L53.9857 49.1533C53.9499 49.3443 53.8486 49.5168 53.6992 49.6409C53.5497 49.7651 53.3616 49.8332 53.1673 49.8333H38.1669C37.9726 49.8332 37.7845 49.7651 37.635 49.6409C37.4856 49.5168 37.3843 49.3443 37.3485 49.1533L34.8501 35.845L34.1834 33.1667H32.3334C32.1123 33.1667 31.9004 33.0789 31.7441 32.9226C31.5878 32.7663 31.5 32.5543 31.5 32.3333ZM36.6702 36.5L38.8586 48.1667H52.4756L54.664 36.5H36.6702ZM39.8336 49.8333C38.9495 49.8333 38.1016 50.1845 37.4765 50.8096C36.8514 51.4348 36.5002 52.2826 36.5002 53.1667C36.5002 54.0507 36.8514 54.8986 37.4765 55.5237C38.1016 56.1488 38.9495 56.5 39.8336 56.5C40.7177 56.5 41.5655 56.1488 42.1907 55.5237C42.8158 54.8986 43.167 54.0507 43.167 53.1667C43.167 52.2826 42.8158 51.4348 42.1907 50.8096C41.5655 50.1845 40.7177 49.8333 39.8336 49.8333ZM51.5006 49.8333C50.6165 49.8333 49.7687 50.1845 49.1435 50.8096C48.5184 51.4348 48.1672 52.2826 48.1672 53.1667C48.1672 54.0507 48.5184 54.8986 49.1435 55.5237C49.7687 56.1488 50.6165 56.5 51.5006 56.5C52.3847 56.5 53.2326 56.1488 53.8577 55.5237C54.4829 54.8986 54.8341 54.0507 54.8341 53.1667C54.8341 52.2826 54.4829 51.4348 53.8577 50.8096C53.2326 50.1845 52.3847 49.8333 51.5006 49.8333ZM39.8336 51.5C40.2756 51.5 40.6996 51.6756 41.0121 51.9882C41.3247 52.3007 41.5003 52.7246 41.5003 53.1667C41.5003 53.6087 41.3247 54.0326 41.0121 54.3452C40.6996 54.6577 40.2756 54.8333 39.8336 54.8333C39.3915 54.8333 38.9676 54.6577 38.655 54.3452C38.3425 54.0326 38.1669 53.6087 38.1669 53.1667C38.1669 52.7246 38.3425 52.3007 38.655 51.9882C38.9676 51.6756 39.3915 51.5 39.8336 51.5ZM51.5006 51.5C51.9427 51.5 52.3666 51.6756 52.6792 51.9882C52.9917 52.3007 53.1673 52.7246 53.1673 53.1667C53.1673 53.6087 52.9917 54.0326 52.6792 54.3452C52.3666 54.6577 51.9427 54.8333 51.5006 54.8333C51.0586 54.8333 50.6346 54.6577 50.3221 54.3452C50.0095 54.0326 49.8339 53.6087 49.8339 53.1667C49.8339 52.7246 50.0095 52.3007 50.3221 51.9882C50.6346 51.6756 51.0586 51.5 51.5006 51.5Z" fill="white"/>
</svg>
