<svg width="36" height="34" viewBox="0 0 36 34" fill="none" xmlns="http://www.w3.org/2000/svg">
<path d="M8.62196 11.6749H1.59953C1.36672 11.6749 1.14345 11.7627 0.978825 11.919C0.814205 12.0752 0.721722 12.2872 0.721722 12.5081V32.5043C0.721722 32.7252 0.814205 32.9372 0.978825 33.0934C1.14345 33.2497 1.36672 33.3374 1.59953 33.3374H8.62196C8.85477 33.3374 9.07805 33.2497 9.24267 33.0934C9.40729 32.9372 9.49977 32.7252 9.49977 32.5043V12.5081C9.49977 12.2872 9.40729 12.0752 9.24267 11.919C9.07805 11.7627 8.85477 11.6749 8.62196 11.6749ZM7.74416 31.6711H2.47733V13.3413H7.74416V31.6711ZM27.0559 11.6749C25.151 11.6749 23.2989 12.2715 21.789 13.373V12.5081C21.789 12.2872 21.6966 12.0752 21.5319 11.919C21.3673 11.7627 21.144 11.6749 20.9112 11.6749H13.8888C13.656 11.6749 13.4327 11.7627 13.2681 11.919C13.1035 12.0752 13.011 12.2872 13.011 12.5081V32.5043C13.011 32.7252 13.1035 32.9372 13.2681 33.0934C13.4327 33.2497 13.656 33.3374 13.8888 33.3374H20.9112C21.144 33.3374 21.3673 33.2497 21.5319 33.0934C21.6966 32.9372 21.789 32.7252 21.789 32.5043V23.3394C21.789 22.6765 22.0665 22.0407 22.5603 21.5719C23.0542 21.1032 23.724 20.8398 24.4225 20.8398C25.1209 20.8398 25.7907 21.1032 26.2846 21.5719C26.7784 22.0407 27.0559 22.6765 27.0559 23.3394V32.5043C27.0559 32.7252 27.1483 32.9372 27.313 33.0934C27.4776 33.2497 27.7009 33.3374 27.9337 33.3374H34.9561C35.1889 33.3374 35.4122 33.2497 35.5768 33.0934C35.7414 32.9372 35.8339 32.7252 35.8339 32.5043V20.0067C35.8311 17.7978 34.9054 15.6801 33.2598 14.1182C31.6142 12.5562 29.3831 11.6776 27.0559 11.6749ZM34.0783 31.6711H28.8115V23.3394C28.8115 22.2345 28.3491 21.1749 27.526 20.3937C26.7029 19.6124 25.5865 19.1735 24.4225 19.1735C23.2584 19.1735 22.142 19.6124 21.3189 20.3937C20.4958 21.1749 20.0334 22.2345 20.0334 23.3394V31.6711H14.7666V13.3413H20.0334V15.3459C20.0334 15.5185 20.0898 15.6868 20.1949 15.8276C20.2999 15.9684 20.4485 16.0748 20.62 16.1321C20.7915 16.1893 20.9775 16.1946 21.1523 16.1472C21.3272 16.0998 21.4821 16.0021 21.5959 15.8675C22.4975 14.7828 23.7332 13.9922 25.1307 13.6059C26.5282 13.2197 28.0179 13.257 29.3921 13.7126C30.7662 14.1683 31.9563 15.0196 32.7963 16.1479C33.6364 17.2761 34.0845 18.6251 34.0783 20.0067V31.6711ZM5.75681 0.0138657C5.55053 6.59358e-05 5.34352 -0.00104744 5.13708 0.0105328C4.48007 -0.0318979 3.82089 0.0541624 3.20035 0.263383C2.57981 0.472604 2.01115 0.800528 1.52957 1.22684C1.04799 1.65316 0.663766 2.16879 0.40069 2.74179C0.137614 3.31478 0.00129116 3.93295 0.000166546 4.55799C-0.0052858 5.1765 0.12319 5.78948 0.377626 6.35892C0.632062 6.92836 1.00703 7.44211 1.47929 7.86833C1.95155 8.29454 2.51102 8.62413 3.12301 8.83665C3.735 9.04917 4.38647 9.14009 5.03701 9.10378H5.08617C5.71499 9.14557 6.34633 9.0694 6.94414 8.87961C7.54195 8.68982 8.09452 8.39013 8.57031 7.99764C9.04609 7.60516 9.43577 7.12757 9.71709 6.59215C9.99842 6.05672 10.1659 5.47395 10.2099 4.87709C10.2539 4.28024 10.1737 3.681 9.97374 3.11359C9.77378 2.54617 9.45803 2.0217 9.04452 1.5701C8.63102 1.11851 8.12784 0.748647 7.56374 0.481627C6.99963 0.214607 6.38564 0.0556617 5.75681 0.0138657ZM5.69536 7.44243C5.49263 7.45993 5.28856 7.45825 5.08617 7.43743H5.03701C4.61449 7.46758 4.18998 7.41377 3.79059 7.27945C3.39121 7.14512 3.02572 6.93323 2.71747 6.65729C2.40921 6.38136 2.16497 6.04745 2.00032 5.67688C1.83567 5.30631 1.75424 4.90723 1.76122 4.50511C1.76821 4.10299 1.86346 3.70667 2.04089 3.34145C2.21832 2.97624 2.47403 2.65015 2.7917 2.38402C3.10937 2.11788 3.48202 1.91753 3.88585 1.79578C4.28969 1.67402 4.71583 1.63353 5.13708 1.67688C5.9426 1.60661 6.74453 1.84294 7.36647 2.33388C7.9884 2.82481 8.37939 3.53015 8.45343 4.29471C8.52746 5.05927 8.27847 5.82043 7.76123 6.41074C7.244 7.00105 6.50088 7.37216 5.69536 7.44243Z" fill="black"/>
</svg>
