<svg width="44" height="44" viewBox="0 0 44 44" fill="none" xmlns="http://www.w3.org/2000/svg">
<rect width="44" height="44" rx="22" fill="black"/>
<rect width="24" height="24" transform="translate(10 10)" fill="black"/>
<path d="M12.7143 13H31.2857C31.6808 13 32 13.3656 32 13.8182V30.1818C32 30.6344 31.6808 31 31.2857 31H12.7143C12.3192 31 12 30.6344 12 30.1818V13.8182C12 13.3656 12.3192 13 12.7143 13ZM13.6071 15.833V29.1591H30.3929V15.833L31.0089 15.2832L30.1317 13.992L29.1763 14.8435H14.8214L13.8661 13.992L12.9888 15.2832L13.6071 15.833ZM14.8214 14.8409L22 21.233L29.1786 14.8409L30.1339 13.9895L31.0112 15.2807L30.3951 15.8304L22.7701 22.6213C22.5508 22.8164 22.281 22.9224 22.0033 22.9224C21.7257 22.9224 21.4559 22.8164 21.2366 22.6213L13.6071 15.833L12.9911 15.2832L13.8683 13.992L14.8214 14.8409Z" fill="white"/>
</svg>
