<svg width="63" height="63" viewBox="0 0 63 63" fill="none" xmlns="http://www.w3.org/2000/svg">
<path fill-rule="evenodd" clip-rule="evenodd" d="M31.5 55.125C34.6025 55.125 37.6746 54.5139 40.5409 53.3267C43.4072 52.1394 46.0116 50.3992 48.2054 48.2054C50.3992 46.0116 52.1394 43.4072 53.3267 40.5409C54.5139 37.6746 55.125 34.6025 55.125 31.5C55.125 28.3975 54.5139 25.3254 53.3267 22.4591C52.1394 19.5928 50.3992 16.9884 48.2054 14.7946C46.0116 12.6008 43.4072 10.8606 40.5409 9.67335C37.6746 8.48608 34.6025 7.875 31.5 7.875C25.2343 7.875 19.2251 10.3641 14.7946 14.7946C10.3641 19.2251 7.875 25.2343 7.875 31.5C7.875 37.7657 10.3641 43.7748 14.7946 48.2054C19.2251 52.6359 25.2343 55.125 31.5 55.125ZM31.5 60.375C47.4469 60.375 60.375 47.4469 60.375 31.5C60.375 15.5531 47.4469 2.625 31.5 2.625C15.5531 2.625 2.625 15.5531 2.625 31.5C2.625 47.4469 15.5531 60.375 31.5 60.375Z" fill="black"/>
<path d="M42 31.5L26.25 42.8663V20.1338L42 31.5Z" fill="black"/>
</svg>
