<svg width="30" height="26" viewBox="0 0 30 26" fill="none" xmlns="http://www.w3.org/2000/svg">
<path d="M29.8169 3.60104C29.7746 3.50084 29.7021 3.41501 29.6086 3.35449C29.5152 3.29398 29.405 3.26154 29.2922 3.26132H24.6405C24.1242 2.29179 23.3416 1.47567 22.3769 0.900957C21.4122 0.326247 20.3021 0.0147532 19.1662 6.24019e-05C17.5011 -0.00718907 15.9007 0.617818 14.7153 1.73833C13.5299 2.85884 12.856 4.38362 12.841 5.97904V7.50097C6.58678 6.22364 1.38198 1.29098 1.32525 1.25021C1.25407 1.17764 1.16299 1.12575 1.06244 1.1005C0.961895 1.07525 0.855959 1.07765 0.756774 1.10744C0.65759 1.13722 0.569173 1.19319 0.501659 1.26891C0.434146 1.34463 0.390267 1.43705 0.375055 1.53557C-0.844599 7.89504 1.14088 12.1483 3.02709 14.5942C4.08372 15.9841 5.40152 17.173 6.91296 18.1001C4.68639 20.8721 0.772151 22.2989 0.729605 22.3261C0.649916 22.3547 0.577949 22.4 0.519031 22.4588C0.460113 22.5176 0.415754 22.5884 0.389237 22.6658C0.362344 22.7428 0.354749 22.8247 0.367069 22.905C0.379389 22.9852 0.411277 23.0616 0.460147 23.1278C0.488511 23.1822 0.857244 23.6714 1.80744 24.1334C3.01291 24.7041 4.62966 25.0031 6.60096 25.0031C16.3724 25.0031 24.5412 17.7332 25.2645 8.42499L29.6893 4.18535C29.7711 4.11261 29.8273 4.01732 29.8502 3.91266C29.873 3.80799 29.8614 3.69911 29.8169 3.60104ZM24.3143 7.79992C24.2161 7.89495 24.1559 8.01999 24.1441 8.15322C23.5627 16.9994 15.8476 23.916 6.60096 23.916C4.07656 23.916 2.68672 23.386 1.99181 22.9784C3.46673 22.3261 6.45914 20.7634 8.20353 18.236C8.25138 18.1745 8.28393 18.1034 8.29867 18.028C8.31342 17.9526 8.30998 17.875 8.28862 17.8011C8.26686 17.7258 8.22919 17.6556 8.17797 17.5949C8.12674 17.5341 8.06303 17.484 7.9908 17.4478C7.96244 17.4342 5.82095 16.3879 3.93474 13.942C1.58053 10.8709 0.701241 7.1069 1.32525 2.71778C3.14055 4.25329 7.82061 7.8135 13.3091 8.68317C13.3907 8.69727 13.4744 8.69488 13.555 8.67616C13.6356 8.65744 13.7112 8.6228 13.7771 8.57446C13.8397 8.52195 13.8898 8.45717 13.9241 8.3845C13.9583 8.31183 13.9759 8.23296 13.9756 8.15322V5.97904C13.9906 4.6743 14.543 3.42808 15.5125 2.51182C16.4821 1.59555 17.7903 1.08349 19.152 1.08715C20.1331 1.10178 21.0891 1.38621 21.9062 1.90657C22.7233 2.42693 23.3672 3.16131 23.7612 4.02229C23.8041 4.12103 23.8772 4.20503 23.9708 4.26324C24.0645 4.32145 24.1743 4.35114 24.2859 4.34841H27.9165L24.3143 7.79992Z" fill="black"/>
</svg>
