<svg width="36" height="36" viewBox="0 0 36 36" fill="none" xmlns="http://www.w3.org/2000/svg">
<path d="M32.334 8.72222C32.1631 7.90442 31.8284 7.15878 31.3634 6.55994C30.8983 5.96109 30.3193 5.53005 29.6843 5.30995C27.9488 4.4465 11.1354 4.02346 6.25742 5.33409C5.62228 5.55427 5.04321 5.98547 4.57818 6.58449C4.11315 7.18352 3.77848 7.92936 3.60768 8.74733C2.82393 13.1737 2.76469 22.7432 3.62718 27.269C3.79809 28.0868 4.13281 28.8325 4.59783 29.4313C5.06286 30.0302 5.64187 30.4612 6.27692 30.6813C9.71415 31.7003 26.055 31.8432 29.7038 30.6813C30.3388 30.4612 30.9178 30.0302 31.3829 29.4313C31.8479 28.8325 32.1826 28.0868 32.3535 27.269C33.189 22.4466 33.2483 13.4702 32.334 8.72222V8.72222Z" stroke="black" stroke-linecap="round" stroke-linejoin="round"/>
<path d="M26.1705 17.9887L10.5 9.90088V26.0766L26.1705 17.9887Z" stroke="black" stroke-linecap="round" stroke-linejoin="round"/>
</svg>
