<svg width="88" height="88" viewBox="0 0 88 88" fill="none" xmlns="http://www.w3.org/2000/svg">
<rect width="88" height="88" rx="44" fill="black"/>
<rect width="30" height="30" transform="translate(29 29)" fill="black"/>
<path d="M46.3818 41.6455L46.3819 41.6456L47.1774 42.7058L47.9773 43.772L48.7772 42.7058L49.5726 41.6456L49.5727 41.6455C49.5944 41.6165 49.6267 41.5974 49.6625 41.5923C49.6803 41.5897 49.6983 41.5907 49.7157 41.5952C49.733 41.5996 49.7493 41.6074 49.7636 41.6182C49.7926 41.6399 49.8117 41.6722 49.8168 41.708C49.8219 41.7438 49.8126 41.7802 49.7909 41.8091L48.5977 43.4L48.1477 44L48.5977 44.6L49.7909 46.1909C49.8017 46.2052 49.8095 46.2215 49.8139 46.2389C49.8184 46.2562 49.8193 46.2743 49.8168 46.292C49.8143 46.3097 49.8083 46.3268 49.7992 46.3422C49.79 46.3576 49.778 46.3711 49.7636 46.3818C49.7493 46.3926 49.733 46.4004 49.7157 46.4048C49.6983 46.4093 49.6803 46.4103 49.6625 46.4077C49.6267 46.4026 49.5944 46.3835 49.5727 46.3545L49.5726 46.3544L48.7772 45.2942L47.9773 44.228L47.1774 45.2942L46.3819 46.3544L46.3818 46.3545C46.3601 46.3835 46.3278 46.4026 46.292 46.4077C46.2562 46.4128 46.2198 46.4035 46.1909 46.3818C46.162 46.3601 46.1428 46.3278 46.1377 46.292C46.1326 46.2562 46.1419 46.2198 46.1636 46.1909L47.3568 44.6L47.8068 44L47.3568 43.4L46.1636 41.8091C46.1419 41.7802 46.1326 41.7438 46.1377 41.708C46.1428 41.6722 46.162 41.6399 46.1909 41.6182C46.2198 41.5965 46.2562 41.5872 46.292 41.5923C46.3278 41.5974 46.3601 41.6165 46.3818 41.6455ZM38.6619 45.5004L38.6619 45.5003C38.3013 44.9989 38.1818 44.4006 38.1818 44V41.7273C38.1818 41.6911 38.1962 41.6564 38.2218 41.6308C38.2473 41.6053 38.282 41.5909 38.3182 41.5909C38.3543 41.5909 38.389 41.6053 38.4146 41.6308C38.4402 41.6564 38.4545 41.6911 38.4545 41.7273V44V44.0111L38.4548 44.0222C38.4651 44.4843 38.6081 44.9336 38.8668 45.3166L38.8746 45.3282L38.8828 45.3395C39.0136 45.5219 39.2154 45.7403 39.5318 45.9033C39.8421 46.0632 40.1976 46.1364 40.5909 46.1364C40.9843 46.1364 41.3397 46.0632 41.65 45.9033C41.9654 45.7408 42.1669 45.5234 42.2977 45.3413C42.6195 44.8958 42.7273 44.3563 42.7273 44V41.7273C42.7273 41.6911 42.7416 41.6564 42.7672 41.6308C42.7928 41.6053 42.8275 41.5909 42.8636 41.5909C42.8998 41.5909 42.9345 41.6053 42.9601 41.6308C42.9856 41.6564 43 41.6911 43 41.7273V44C43 44.4014 42.8807 44.9983 42.5204 45.4997C42.153 46.0089 41.5436 46.4091 40.5909 46.4091C39.6366 46.4091 39.0283 46.01 38.6619 45.5004ZM44 30.5C36.5443 30.5 30.5 36.5443 30.5 44C30.5 51.4557 36.5443 57.5 44 57.5C51.4557 57.5 57.5 51.4557 57.5 44C57.5 36.5443 51.4557 30.5 44 30.5Z" fill="black" stroke="white" stroke-width="2"/>
</svg>
